<?xml version="1.0" encoding="UTF-8" standalone="no"?><!DOCTYPE svg PUBLIC "-//W3C//DTD SVG 1.1//EN" "http://www.w3.org/Graphics/SVG/1.1/DTD/svg11.dtd"><svg width="100%" height="100%" viewBox="0 0 875 1241" version="1.1" xmlns="http://www.w3.org/2000/svg" xmlns:xlink="http://www.w3.org/1999/xlink" xml:space="preserve" xmlns:serif="http://www.serif.com/" style="fill-rule:evenodd;clip-rule:evenodd;stroke-linecap:round;stroke-linejoin:round;stroke-miterlimit:1.5;"><g><text x="274.707px" y="592.262px" style="font-family:'UnicaOne-Regular', 'Unica One';font-size:234.942px;">Yertle</text><circle cx="127.112" cy="515.906" r="113.892" style="fill:none;"/><clipPath id="_clip1"><circle cx="127.112" cy="515.906" r="113.892"/></clipPath><g clip-path="url(#_clip1)"><path d="M75.677,544.758l51.435,29.696l0,59.393l-51.435,29.696l-51.436,-29.696l0,-59.393l51.436,-29.696Z" style="fill:none;stroke:#000;stroke-width:16.67px;"/><path d="M127.112,456.513l51.436,29.696l-0,59.393l-51.436,29.696l-51.435,-29.696l-0,-59.393l51.435,-29.696Z" style="fill:none;stroke:#000;stroke-width:16.67px;"/><path d="M178.548,544.758l51.435,29.696l0,59.393l-51.435,29.696l-51.436,-29.696l0,-59.393l51.436,-29.696Z" style="fill:none;stroke:#000;stroke-width:16.67px;"/><path d="M229.983,456.513l51.436,29.696l-0,59.393l-51.436,29.696l-51.435,-29.696l-0,-59.393l51.435,-29.696Z" style="fill:none;stroke:#000;stroke-width:16.67px;"/><path d="M24.241,456.513l51.436,29.696l-0,59.393l-51.436,29.696l-51.435,-29.696l-0,-59.393l51.435,-29.696Z" style="fill:none;stroke:#000;stroke-width:16.67px;"/><path d="M178.548,367.66l51.435,29.697l0,59.392l-51.435,29.696l-51.436,-29.696l0,-59.392l51.436,-29.697Z" style="fill:none;stroke:#000;stroke-width:16.67px;"/><path d="M75.677,367.66l51.435,29.697l0,59.392l-51.435,29.696l-51.436,-29.696l0,-59.392l51.436,-29.697Z" style="fill:none;stroke:#000;stroke-width:16.67px;"/></g><circle cx="127.112" cy="515.906" r="113.892" style="fill:none;stroke:#000;stroke-width:16.67px;"/></g></svg>