<?xml version="1.0" encoding="UTF-8" standalone="no"?>
<!DOCTYPE svg PUBLIC "-//W3C//DTD SVG 1.1//EN" "http://www.w3.org/Graphics/SVG/1.1/DTD/svg11.dtd">
<svg width="100%" height="100%" viewBox="0 0 875 1241" version="1.1" xmlns="http://www.w3.org/2000/svg" xmlns:xlink="http://www.w3.org/1999/xlink" xml:space="preserve" xmlns:serif="http://www.serif.com/" style="fill-rule:evenodd;clip-rule:evenodd;stroke-linecap:round;stroke-linejoin:round;stroke-miterlimit:1.5;">
    <g>
        <g transform="matrix(0.867307,0,0,0.867307,147.208,58.1215)">
            <g transform="matrix(270.886,0,0,270.886,147.005,615.861)">
                <path d="M0.26,-0L0.19,-0L0.19,-0.233L0.025,-0.65L0.099,-0.65L0.225,-0.315L0.351,-0.65L0.425,-0.65L0.26,-0.232L0.26,-0Z" style="fill-rule:nonzero;"/>
            </g>
            <g transform="matrix(270.886,0,0,270.886,268.904,615.861)">
                <path d="M0.345,-0.125L0.345,-0.18L0.415,-0.18L0.415,-0.125C0.415,-0.08 0.401,-0.046 0.374,-0.021C0.347,0.003 0.306,0.015 0.251,0.015C0.196,0.015 0.155,0.003 0.127,-0.021C0.099,-0.046 0.085,-0.08 0.085,-0.125L0.085,-0.525C0.085,-0.57 0.099,-0.604 0.126,-0.628C0.153,-0.653 0.194,-0.665 0.249,-0.665C0.304,-0.665 0.345,-0.653 0.373,-0.628C0.401,-0.604 0.415,-0.57 0.415,-0.525L0.415,-0.305L0.155,-0.305L0.155,-0.125C0.155,-0.072 0.187,-0.045 0.25,-0.045C0.313,-0.045 0.345,-0.072 0.345,-0.125ZM0.155,-0.525L0.155,-0.365L0.345,-0.365L0.345,-0.525C0.345,-0.578 0.313,-0.605 0.25,-0.605C0.187,-0.605 0.155,-0.578 0.155,-0.525Z" style="fill-rule:nonzero;"/>
            </g>
            <g transform="matrix(270.886,0,0,270.886,404.347,615.861)">
                <path d="M0.17,-0L0.1,-0L0.1,-0.65L0.13,-0.65L0.159,-0.576C0.18,-0.635 0.214,-0.665 0.261,-0.665C0.34,-0.665 0.38,-0.622 0.38,-0.535L0.38,-0.47L0.313,-0.47L0.313,-0.539C0.313,-0.583 0.295,-0.605 0.258,-0.605C0.236,-0.605 0.216,-0.592 0.198,-0.567C0.179,-0.542 0.17,-0.505 0.17,-0.457L0.17,-0Z" style="fill-rule:nonzero;"/>
            </g>
            <g transform="matrix(270.886,0,0,270.886,512.702,615.861)">
                <path d="M0.085,-0.65L0.305,-0.65L0.305,-0.59L0.155,-0.59L0.155,-0.111C0.155,-0.092 0.16,-0.077 0.17,-0.064C0.179,-0.051 0.193,-0.045 0.211,-0.045C0.228,-0.045 0.242,-0.051 0.251,-0.064C0.26,-0.076 0.265,-0.092 0.265,-0.111L0.265,-0.23L0.335,-0.23L0.335,-0.115C0.335,-0.073 0.324,-0.041 0.302,-0.019C0.279,0.004 0.249,0.015 0.211,0.015C0.173,0.015 0.142,0.004 0.119,-0.019C0.097,-0.041 0.085,-0.073 0.085,-0.115L0.085,-0.65Z" style="fill-rule:nonzero;"/>
            </g>
            <g transform="matrix(270.886,0,0,270.886,614.284,615.861)">
                <path d="M0.1,-0L0.1,-0.65L0.17,-0.65L0.17,-0.06L0.353,-0.06L0.353,-0L0.1,-0Z" style="fill-rule:nonzero;"/>
            </g>
            <g transform="matrix(270.886,0,0,270.886,715.325,615.861)">
                <path d="M0.345,-0.125L0.345,-0.18L0.415,-0.18L0.415,-0.125C0.415,-0.08 0.401,-0.046 0.374,-0.021C0.347,0.003 0.306,0.015 0.251,0.015C0.196,0.015 0.155,0.003 0.127,-0.021C0.099,-0.046 0.085,-0.08 0.085,-0.125L0.085,-0.525C0.085,-0.57 0.099,-0.604 0.126,-0.628C0.153,-0.653 0.194,-0.665 0.249,-0.665C0.304,-0.665 0.345,-0.653 0.373,-0.628C0.401,-0.604 0.415,-0.57 0.415,-0.525L0.415,-0.305L0.155,-0.305L0.155,-0.125C0.155,-0.072 0.187,-0.045 0.25,-0.045C0.313,-0.045 0.345,-0.072 0.345,-0.125ZM0.155,-0.525L0.155,-0.365L0.345,-0.365L0.345,-0.525C0.345,-0.578 0.313,-0.605 0.25,-0.605C0.187,-0.605 0.155,-0.578 0.155,-0.525Z" style="fill-rule:nonzero;"/>
            </g>
        </g>
        <g transform="matrix(1,0,0,1,-302.514,43.4646)">
            <circle cx="429.626" cy="472.441" r="113.892" style="fill:none;"/>
            <clipPath id="_clip1">
                <circle cx="429.626" cy="472.441" r="113.892"/>
            </clipPath>
            <g clip-path="url(#_clip1)">
                <g transform="matrix(0.433071,0,0,0.433071,192.432,402.187)">
                    <path d="M428.934,228.847L547.703,297.418L547.703,434.561L428.934,503.133L310.165,434.561L310.165,297.418L428.934,228.847Z" style="fill:none;stroke:black;stroke-width:38.48px;"/>
                </g>
                <g transform="matrix(0.433071,0,0,0.433071,243.867,313.941)">
                    <path d="M428.934,228.847L547.703,297.418L547.703,434.561L428.934,503.133L310.165,434.561L310.165,297.418L428.934,228.847Z" style="fill:none;stroke:black;stroke-width:38.48px;"/>
                </g>
                <g transform="matrix(0.433071,0,0,0.433071,295.303,402.187)">
                    <path d="M428.934,228.847L547.703,297.418L547.703,434.561L428.934,503.133L310.165,434.561L310.165,297.418L428.934,228.847Z" style="fill:none;stroke:black;stroke-width:38.48px;"/>
                </g>
                <g transform="matrix(0.433071,0,0,0.433071,346.738,313.941)">
                    <path d="M428.934,228.847L547.703,297.418L547.703,434.561L428.934,503.133L310.165,434.561L310.165,297.418L428.934,228.847Z" style="fill:none;stroke:black;stroke-width:38.48px;"/>
                </g>
                <g transform="matrix(0.433071,0,0,0.433071,140.996,313.941)">
                    <path d="M428.934,228.847L547.703,297.418L547.703,434.561L428.934,503.133L310.165,434.561L310.165,297.418L428.934,228.847Z" style="fill:none;stroke:black;stroke-width:38.48px;"/>
                </g>
                <g transform="matrix(0.433071,0,0,0.433071,295.303,225.089)">
                    <path d="M428.934,228.847L547.703,297.418L547.703,434.561L428.934,503.133L310.165,434.561L310.165,297.418L428.934,228.847Z" style="fill:none;stroke:black;stroke-width:38.48px;"/>
                </g>
                <g transform="matrix(0.433071,0,0,0.433071,192.432,225.089)">
                    <path d="M428.934,228.847L547.703,297.418L547.703,434.561L428.934,503.133L310.165,434.561L310.165,297.418L428.934,228.847Z" style="fill:none;stroke:black;stroke-width:38.48px;"/>
                </g>
            </g>
            <circle cx="429.626" cy="472.441" r="113.892" style="fill:none;stroke:black;stroke-width:16.67px;"/>
        </g>
    </g>
</svg>
